<?xml version="1.0" standalone="no"?>
<!DOCTYPE svg PUBLIC "-//W3C//DTD SVG 20010904//EN"
 "http://www.w3.org/TR/2001/REC-SVG-20010904/DTD/svg10.dtd">
<svg version="1.0" xmlns="http://www.w3.org/2000/svg"
 width="700.000000pt" height="700.000000pt" viewBox="0 0 700.000000 700.000000"
 preserveAspectRatio="xMidYMid meet">
<metadata>
Created by potrace 1.14, written by Peter Selinger 2001-2017
</metadata>
<g transform="translate(0.000000,700.000000) scale(0.100000,-0.100000)"
fill="#000000" stroke="none">
<path d="M3310 6890 c-481 -27 -938 -153 -1375 -378 -1321 -683 -2044 -2162
-1774 -3627 160 -869 662 -1653 1382 -2159 897 -629 2031 -791 3062 -436 1201
414 2069 1462 2255 2721 98 665 -7 1347 -300 1956 -236 491 -571 904 -999
1232 -638 490 -1439 736 -2251 691z m490 -401 c932 -87 1788 -630 2277 -1444
397 -660 523 -1456 351 -2214 -271 -1199 -1255 -2115 -2471 -2300 -1389 -212
-2729 556 -3250 1864 -142 354 -208 706 -209 1100 0 212 10 339 43 525 216
1241 1191 2218 2434 2439 267 47 537 57 825 30z"/>
<path d="M3220 6319 c-1153 -127 -2101 -907 -2430 -2001 -88 -293 -115 -486
-115 -818 0 -266 8 -352 50 -560 210 -1030 977 -1867 1978 -2156 290 -84 471
-109 797 -109 274 0 354 8 580 55 1138 240 2004 1136 2209 2286 64 357 51 781
-32 1134 -192 805 -735 1498 -1467 1870 -287 145 -557 232 -875 282 -150 23
-552 33 -695 17z m391 -875 c69 -31 140 -102 172 -172 17 -36 22 -66 22 -132
0 -78 -3 -90 -34 -148 -19 -35 -58 -85 -88 -112 l-53 -49 0 -810 c0 -446 2
-811 5 -811 2 0 41 25 85 55 97 66 163 100 290 149 52 20 117 53 145 74 96 73
162 187 172 302 l5 55 -37 20 c-54 28 -121 108 -145 173 -18 46 -21 72 -18
137 7 133 73 232 194 291 50 25 71 29 139 29 93 -1 165 -28 233 -90 51 -45 98
-138 107 -209 15 -115 -50 -256 -146 -318 -46 -29 -49 -34 -49 -74 0 -112 -49
-261 -121 -369 -93 -139 -148 -177 -482 -334 -175 -82 -286 -165 -346 -259
l-31 -49 0 -312 0 -312 55 -51 c36 -32 66 -73 87 -116 29 -59 33 -76 33 -147
0 -103 -31 -171 -111 -244 -137 -125 -341 -117 -468 19 -58 62 -87 125 -93
205 -11 126 37 242 122 293 l44 27 1 178 c0 146 -3 181 -15 193 -8 9 -15 29
-15 45 0 71 -93 207 -184 268 -22 15 -75 42 -116 60 -221 96 -367 238 -446
431 -26 64 -54 183 -54 228 0 23 -9 32 -56 56 -61 32 -113 86 -146 155 -19 39
-23 62 -23 146 0 89 3 106 27 151 35 67 115 138 186 164 79 30 195 25 267 -12
59 -30 140 -113 161 -164 59 -142 24 -301 -88 -398 -55 -47 -58 -64 -33 -161
39 -148 148 -264 315 -336 30 -13 91 -45 135 -72 l80 -48 3 903 c1 630 -1 904
-9 907 -36 12 -97 74 -124 126 -27 53 -30 68 -30 154 0 113 18 162 86 236 102
110 252 141 390 79z"/>
</g>
</svg>
