<svg xmlns="http://www.w3.org/2000/svg" viewBox="0 0 660 164">
    <title>Little Fork</title>
    <defs>
        <style>
            .a { fill: #e01b84; }
            .b { fill: #0d000d; }
            .c { fill: #ffffff; }
        </style>
    </defs>
    <g id="svg-logo-mark">
        <circle class="c" cx="82" cy="82" r="50"/>
        <path id ="svg-logo-mark-ring" class="a" d="M82.8049,11.5022A70.4979,70.4979,0,1,1,12.307,82,70.4978,70.4978,0,0,1,82.8049,11.5022m0-8.9842A79.482,79.482,0,0,0,26.6026,138.2022,79.4819,79.4819,0,1,0,139.0071,25.7978,78.9617,78.9617,0,0,0,82.8049,2.518Z"/>
        <path id="svg-logo-mark-fork" class="b" d="M82.8049,15.7421A66.2579,66.2579,0,1,0,149.0627,82,66.2579,66.2579,0,0,0,82.8049,15.7421Zm26.1912,58.1137c-.1431,5.9195-2.6686,12.9356-11.4584,16.2771C90.6862,92.7379,87,96.1083,86,98.6359V113.257c2,1.37,4.16,4.0368,4.16,7.0954a8.0679,8.0679,0,1,1-16.1358,0c0-2.9355.9753-5.5024,3.9753-6.9162v-8.263c-1-.63-.4192-1.3139-.6869-2.0175A11.0457,11.0457,0,0,0,70.9108,96.39c-9.1771-3.5257-12.0668-10.562-12.3884-16.4212a8.0751,8.0751,0,1,1,6.7413-.6845c.0905,3.4443,1.5694,8.26,8.1117,10.7729C75.15,90.7394,76,91.63,78,92.65V50.5639c-3-1.4139-3.991-3.9808-3.991-6.9163a8.0836,8.0836,0,0,1,16.1672,0c0,3.0588-2.1762,5.7256-4.1762,7.0957V88.7946a30.3006,30.3006,0,0,1,9.1273-5.0022,10.3043,10.3043,0,0,0,7.1065-9.8015,8.0705,8.0705,0,1,1,6.7623-.1351Z"/>
    </g>
    <g id="svg-logo-text">
        <g id="svg-logo-text-highlights" class="a">
            <path d="M343.369,123.8422c-.59,0-1.369-.38-1.369-.5362v.1075c0,1.1582-.1105,1.7548.1483,2.083s.43.3457.99.3457h28.8653c.5605,0,1.16.0019,1.4185-.2881A2.3949,2.3949,0,0,0,374,123.8187v-.5524c-1,.18-1.105.5759-1.7658.5759Z"/>
            <path d="M322,49.8422v2h8.907c.6035,0,1.2618.0429,1.4991-.208A2.183,2.183,0,0,0,333,49.9779v-.6728c-1,.2007-1.2056.5371-1.8622.5371Z"/>
            <path d="M308.1626,123.8422c-.8687,0-2.1626-.5415-2.1626-1.023v.5357a3.23,3.23,0,0,0,.5775,2.084,1.6581,1.6581,0,0,0,1.3539.4033h9.5137c.56,0,.854-.0274,1.1352-.375.2777-.3445.294-.81.2942-1.9478a4.3566,4.3566,0,0,1-1.1977.3228Z"/>
            <path d="M421,123.45c-1,.0742-.7974.3926-1.1962.3926H385.5666c-.6865,0-1.5666-.4055-1.5666-.5972v.4575c0,1.043-.0118,1.5625.2469,1.8516s.5282.2881,1.0888.2881H419.573c.56,0,.8527.0019,1.1339-.2881s.2931-.77.2931-1.7354Z"/>
            <path d="M465,87.8422v2h13.92a2.1833,2.1833,0,0,0,1.4605-.3277,2.4968,2.4968,0,0,0,.62-1.7768v-.5864c-1,.1992-1.1466.6909-1.849.6909Z"/>
            <path d="M451.1919,123.8422c-1.0466,0-2.1919-.5752-2.1919-.9383v.7986a2.6082,2.6082,0,0,0,.5594,1.8516c.2588.29.8407.2881,1.4013.2881h9.5146c.56,0,.9245.0019,1.1833-.2881s.3414-.8086.3414-1.8516v-.28c-1,.09-.8516.42-1.294.42Z"/>
            <path d="M229.8514,123.8422a4.0912,4.0912,0,0,1-1.7641-.4761c-.0535-.0234-.0873-.1978-.0873-.2246v.272a5.6992,5.6992,0,0,0,.1957,1.7949.8968.8968,0,0,0,.5343.6357c.2159.0967.5022-.0019.8908-.0019h9.5137c.5606,0,1.0944-.0274,1.3532-.375A3.2994,3.2994,0,0,0,241,123.4135v-.1353c-1,.18-1.087.564-1.6344.564Z"/>
            <path d="M417,86.058v-.3313a3.169,3.169,0,0,1-1.8562.1155H399v3h15.9128C415.991,88.8422,417,87.8344,417,86.058Z"/>
            <path d="M187.5251,123.8422c-.666,0-1.5251-.4065-1.5251-.5974v.1687c0,1.1582-.0328,1.7548.2259,2.083s.5072.3457,1.0678.3457h28.8652c.5606,0,1.0822.0019,1.341-.2881a2.4406,2.4406,0,0,0,.5-1.7354v-.488c-1,.1455-1.0271.5115-1.61.5115Z"/>
            <path d="M293.041,49.5443c-.0331-.01-.041-.1386-.041-.1506v.5842a4.6324,4.6324,0,0,0,.0555,1.5342c.15.3291.2378.3535.4321.4111s.42-.081.853-.081H304v-2h-9.4282A4.7694,4.7694,0,0,1,293.041,49.5443Z"/>
            <path d="M420.61,51.518a2.6708,2.6708,0,0,0,.39-1.7725v-.4233c-1,.1057-.9054.52-1.39.52H399v2h20.3787C419.9392,51.8422,420.3509,51.807,420.61,51.518Z"/>
            <path d="M279,49.8422v2h8.9978c.6035,0,1.2164.0429,1.4537-.208A2.2045,2.2045,0,0,0,290,49.9779v-.6316c-1,.1765-1.1558.4959-1.7717.4959Z"/>
            <path d="M250.1313,49.5443c-.0618-.0185-.1313-.1567-.1313-.1823v.6159a4.375,4.375,0,0,0,.1009,1.5342c.15.3291.2605.3535.4548.4111s.4431-.081.8757-.081H261v-2h-9.3378A4.7706,4.7706,0,0,1,250.1313,49.5443Z"/>
            <path d="M484,49.4093c-1,.0532-.698.4329-1.0306.4329H465v2h17.738c.5606,0,.7926-.0352,1.0524-.3242s.21-.8067.21-1.7725Z"/>
            <path d="M274.7672,123.8422H265.253c-.493,0-1.253-.3765-1.253-.5364v.0491c0,1.1211-.1583,1.7168.1229,2.084s.3817.4033.8993.4033h9.5137c.56,0,.8086-.0274,1.09-.375.275-.3413.25-.8023.249-1.919A4.3837,4.3837,0,0,1,274.7672,123.8422Z"/>
            <path d="M594.392,78.0426q-.3816.2681-.7944.52.3208.2069.6154.4179c.1654.1185.3283.2579.4921.3892a15.4934,15.4934,0,0,0,1.2282-1.5063,11.7343,11.7343,0,0,0,1.3338-2.5516A14.5329,14.5329,0,0,1,594.392,78.0426Z"/>
            <path d="M615.0616,123.8422c-.9373,0-2.0616-.5554-2.0616-.9912v.1572c0,2.085.7527,2.834,1.8308,2.834H624.28c1.1221,0,1.5576-.5357,1.5886-2.378a5.1085,5.1085,0,0,1-1.357.378Z"/>
            <path d="M533.6577,119.0922a19.3929,19.3929,0,0,1-7.6536,4.22,42.6591,42.6591,0,0,1-19.4715,0,19.0216,19.0216,0,0,1-7.6715-4.2942,18.1408,18.1408,0,0,1-3.443-4.3137,18.328,18.328,0,0,0,4.73,7.4636,16.717,16.717,0,0,0,6.7637,3.793,40.4413,40.4413,0,0,0,18.2509,0,17.0625,17.0625,0,0,0,6.7627-3.7353,16.5856,16.5856,0,0,0,3.9849-5.5982A16.6219,16.6219,0,0,1,533.6577,119.0922Z"/>
            <path d="M656.2244,123.6708c-.1294.0156-.2588.1714-.3891.1714h-9.4487c-1.7106,0-3.0349-1.0352-4.1364-2.9158l.9629,2.05c.8623,2.0079,1.7779,2.8653,2.9419,2.8653h9.4492c.5606,0,.8418-.2969.8418-1.1856A2.5615,2.5615,0,0,0,656.2244,123.6708Z"/>
            <path d="M555.2609,123.8422c-.5408,0-1.2609-.3648-1.2609-.5v.1863c0,1.082-.1647,1.64.0941,1.9678s.3754.3457.9359.3457h9.5147c.5595,0,.89-.0176,1.1485-.3457s.3068-.8858.3068-1.9678v-.1113c-1,.0905-.8358.4248-1.225.4248Z"/>
            <path d="M516.235,48.744a6.4122,6.4122,0,0,0-5.2289,2.0667,9.8358,9.8358,0,0,0-1.5974,2.9863,8.7421,8.7421,0,0,1,6.5959-2.487q4.66,0,7.0225,2.8085c.1255.1492.2432.3218.363.4883a10.9859,10.9859,0,0,0-1.8648-3.86C520.39,49.3993,518.66,48.744,516.235,48.744Z"/>
            <path d="M581.1725,87.0314a8.3415,8.3415,0,0,0-2.1327-.8694,13.8278,13.8278,0,0,0-2.68-.32H569v3h7.1287a17.3425,17.3425,0,0,1,3.1064.143,9.8566,9.8566,0,0,1,2.751.9256,5.1008,5.1008,0,0,1,1.2242.894,7.036,7.036,0,0,0-.7123-2.3755A3.268,3.268,0,0,0,581.1725,87.0314Z"/>
            <path d="M573.3832,49.8422H569v2h4.1521c4.6162,0,7.9053,1.1045,9.8691,3.0928.1293.1308.2428.2885.3636.434a6.9336,6.9336,0,0,0-1.7432-3.39C580.1272,50.4469,577.3486,49.8422,573.3832,49.8422Z"/>
            <path d="M592.1343,123.6041q-4.0907.0231-4.2543.0235a3.0613,3.0613,0,0,1-1.3368-.2957c.0034.1372.0054.2281.0054.2591q.0643,2.606,1.1006,2.6037.2577,0,10.29-.0586c.7488,0,1.1321-.9048,1.16-2.6958a3.3174,3.3174,0,0,1-.9157.13Z"/>
        </g>
        <g id="svg-logo-text-letters" class="b">
            <path d="M217.6161,112.3754a1.675,1.675,0,0,0-1.2257-.5332H199.5635c-.6045,0-.5635-.17-.5635-1.02V40.7462a4.1215,4.1215,0,0,0-.56-2.3205,1.9,1.9,0,0,0-1.4012-.5835h-9.5142a1.4267,1.4267,0,0,0-1.1827.5835A4.6267,4.6267,0,0,0,186,40.7462v77.8367c0,1.1582.0826,1.6707.3424,1.998s.6216.2613,1.1827.2613H216.39c.56,0,.9671.0871,1.2257-.2027s.3839-.685.3839-1.6506v-4.6335A3.4007,3.4007,0,0,0,217.6161,112.3754Z"/>
            <path d="M240.765,38.9508a1.555,1.555,0,0,0-.5536-.8733,2.0511,2.0511,0,0,0-.8458-.2353h-9.5142a1.76,1.76,0,0,0-1.3459.6118A4.0473,4.0473,0,0,0,228,40.7462v77.8367a5.2313,5.2313,0,0,0,.3114,1.7954.7979.7979,0,0,0,.5917.551c.2151.0962.56-.0871.9483-.0871h9.5142c.56,0,.9785.0578,1.238-.29a3.17,3.17,0,0,0,.3964-1.97V40.7462A5.5519,5.5519,0,0,0,240.765,38.9508Z"/>
            <path d="M289.535,38.4257a1.685,1.685,0,0,0-1.3067-.5835H251.6622a1.57,1.57,0,0,0-1.2842.5835A4.0381,4.0381,0,0,0,250,40.5724v4.575a3.9282,3.9282,0,0,0,.2155,1.5349c.1508.3283.3189.7678.5129.8264a2.4161,2.4161,0,0,0,.9338.3335H262.923c.4747,0,1.077-.01,1.077.9543v69.729c0,1.12-.0422,1.6316.2384,1.9978s.4967.3189,1.0146.3189h9.5142c.56,0,1.2561.0578,1.5366-.29A2.8448,2.8448,0,0,0,277,118.5255V48.7965c0-.9646-.3143-.9543.1615-.9543h11.0668a1.9534,1.9534,0,0,0,1.3394-.6233A3.8266,3.8266,0,0,0,290,45.1474v-4.575A3.8746,3.8746,0,0,0,289.535,38.4257Z"/>
            <path d="M332.49,38.4257a1.7865,1.7865,0,0,0-1.3521-.5835h-36.566a1.4777,1.4777,0,0,0-1.2389.5835A4.1477,4.1477,0,0,0,293,40.5724v4.575a4.0965,4.0965,0,0,0,.17,1.5349c.1509.3283.2963.7678.49.8264a2.2858,2.2858,0,0,0,.9111.3335h11.2608c.4746,0,1.1674-.01,1.1674.9543v69.729c0,1.12-.0873,1.6316.1932,1.9978s.4516.3189.9694.3189h9.5142c.56,0,.8013.0578,1.0819-.29s.2413-.8691.2413-2.0271V48.7965c0-.9646.5953-.9543,1.0712-.9543h11.0666a2.0743,2.0743,0,0,0,1.3848-.6233A3.7392,3.7392,0,0,0,333,45.1474v-4.575A3.8006,3.8006,0,0,0,332.49,38.4257Z"/>
            <path d="M373.538,112.3754a1.87,1.87,0,0,0-1.3038-.5332H355.4073c-.6045,0-.4073-.17-.4073-1.02V40.7462a4,4,0,0,0-.6376-2.3205,2.0916,2.0916,0,0,0-1.4792-.5835H343.369a1.2808,1.2808,0,0,0-1.1048.5835A4.9067,4.9067,0,0,0,342,40.7462v77.8367c0,1.1582.0046,1.6707.2642,1.998s.5437.2613,1.1048.2613h28.8652c.56,0,1.0453.0871,1.3038-.2027a2.2173,2.2173,0,0,0,.462-1.6506v-4.6335A3.2761,3.2761,0,0,0,373.538,112.3754Z"/>
            <path d="M421.5162,112.85a1.5538,1.5538,0,0,0-.6778-.7644,3.268,3.268,0,0,0-1.0346-.2434H397V85.6293a3.1172,3.1172,0,0,1,.0763-1.1831c.1509-.3853.1615-.604.3346-.604h17.7329c1.0779,0,1.8562-.8377,1.8562-2.614v-4.459c0-1.7754-.7783-2.927-1.8562-2.927H397.3466c-.13,0-.1194-.0425-.27-.39A1.8686,1.8686,0,0,1,397,72.5407V49.1437c0-1.2742-.0416-2.3015.4751-2.3015H419.61c.56,0,.8565.0508,1.1161-.2393S421,45.8817,421,44.9162V40.34a4.5781,4.5781,0,0,0-.1129-1.563c-.152-.3474-.2774-.6508-.4925-.728a2.0436,2.0436,0,0,0-.7849-.207H385.5666a1.5063,1.5063,0,0,0-1.2037.5542,3.7542,3.7542,0,0,0-.3629,2.06v78.4163c0,1.042.1034,1.477.3629,1.7668s.6426.2027,1.2037.2027h34.2372c.56,0,1.2378.0871,1.5183-.2027A2.0634,2.0634,0,0,0,422,118.9889V114.413A3.5989,3.5989,0,0,0,421.5162,112.85Z"/>
            <path d="M484.568,38.7772a1.4833,1.4833,0,0,0-.6209-.728,2.8413,2.8413,0,0,0-.9777-.207H451.1919a1.1462,1.1462,0,0,0-1.0162.5542c-.26.3095-.1757,1.0566-.1757,2.06v78.4163c0,1.042-.0839,1.477.1757,1.7668s.455.2027,1.0162.2027h9.5141c.56,0,.8095.0871,1.068-.2027s.226-.7248.226-1.7668v-32.2a3.3056,3.3056,0,0,1,.3888-1.1758c.1509-.3086.4744-.6545.6473-.6545H479.151c.56,0,1.087.0469,1.3455-.2429A2.3085,2.3085,0,0,0,481,82.9083V77.6952a2.1577,2.1577,0,0,0-.5035-1.65c-.2585-.27-.7854-.2031-1.3455-.2031H462.9718c-.4325,0-.9718-.7908-.9718-1.564v-25.54c0-1.0034.5837-1.8957,1.1005-1.8957h19.8689c.5611,0,1.1778.0508,1.4361-.2393A2.2471,2.2471,0,0,0,485,44.9162V40.34A3.68,3.68,0,0,0,484.568,38.7772Z"/>
            <path d="M539.5668,61.5661a54.1174,54.1174,0,0,0-2.7509-12.1043,18.7766,18.7766,0,0,0-4.8541-7.5A17.2167,17.2167,0,0,0,525.2,38.1683a32.7484,32.7484,0,0,0-8.9647-1.0712,35.0163,35.0163,0,0,0-7.5711.7238A18.834,18.834,0,0,0,502.58,40.37a14.9779,14.9779,0,0,0-4.7242,4.8941,32.7883,32.7883,0,0,0-3.2688,7.7605,59.3188,59.3188,0,0,0-2.0062,11.1775q-.6156,6.4874-.615,15.0576a148.1542,148.1542,0,0,0,.9388,18.1565,58.8177,58.8177,0,0,0,2.6854,12.3061,18.4294,18.4294,0,0,0,4.79,7.6162,16.7053,16.7053,0,0,0,6.7633,3.7935,40.4791,40.4791,0,0,0,18.2509,0,17.0694,17.0694,0,0,0,6.7633-3.7359,17.9575,17.9575,0,0,0,4.7886-7.5576A57.8624,57.8624,0,0,0,539.6,97.5023a155.1819,155.1819,0,0,0,.906-18.2431A142.079,142.079,0,0,0,539.5668,61.5661Zm-12.9759,38.7453q-1.1013,7.2093-3.4956,9.9607t-6.9245,2.7515a8.42,8.42,0,0,1-6.8277-2.8091q-2.3639-2.8089-3.4629-10.0193a149.0345,149.0345,0,0,1-1.1-20.936,146.2369,146.2369,0,0,1,1.0358-20.0962q1.0347-6.95,3.4618-9.8162a8.61,8.61,0,0,1,6.9573-2.8677q4.6612,0,7.0228,2.8091,2.3622,2.8107,3.3975,9.7012a147.3809,147.3809,0,0,1,1.0357,20.27A150.3152,150.3152,0,0,1,526.5909,100.3114Z"/>
            <path d="M599.0765,97.6762a46.99,46.99,0,0,0-.97-8.3977,14.3473,14.3473,0,0,0-2.2658-5.4151,13.9334,13.9334,0,0,0-2.9449-3.04,19.815,19.815,0,0,0-3.7855-2.0273.3345.3345,0,0,1-.1941-.29.4824.4824,0,0,1,.1941-.3474,16.0722,16.0722,0,0,0,3.98-1.969,13.04,13.04,0,0,0,3.0747-3.1563,14.2643,14.2643,0,0,0,2.136-5.2121,35.38,35.38,0,0,0,.7119-7.5576,35.75,35.75,0,0,0-1.1984-9.9041,19.4314,19.4314,0,0,0-3.0407-6.4863,12.3066,12.3066,0,0,0-4.8869-3.7066,23.0324,23.0324,0,0,0-5.9215-1.8278,49.5092,49.5092,0,0,0-6.9574-.4966H555.2609a1.2073,1.2073,0,0,0-1.0508.5542c-.26.3095-.21,1.133-.21,2.2922v78.0105c0,1.0818-.0494,1.5545.21,1.8818s.49.2613,1.0508.2613h9.5141c.56,0,1.275.0671,1.5333-.2613A2.6258,2.6258,0,0,0,567,118.6991V85.0509c0-.85-.3707-1.2087.1051-1.2087H576.36a16.8352,16.8352,0,0,1,3.1062.2275,10.0349,10.0349,0,0,1,2.751.9683,5.477,5.477,0,0,1,2.2658,2.3081A9.88,9.88,0,0,1,585.55,91.31q.4526,1.91.8417,14.476.3876,12.5681.3882,12.9717.0631,2.6064,1.1,2.6055.2579,0,10.29-.0581,1.1645,0,1.1645-2.8958Q599.335,102.1939,599.0765,97.6762Zm-23.6872-22.834h-8.3485c-.4327,0-.0408-.6214-.0408-1.6646V48.3905c0-.772-.3707-1.5483.1051-1.5483h6.2781c4.6156,0,7.9054,1.19,9.87,3.1777s2.9449,5.62,2.9449,10.6013C586.1976,70.0033,582.5945,74.8422,575.3893,74.8422Z"/>
            <path d="M656.2235,118.0038,639.5264,80.4181a5.4975,5.4975,0,0,1-.26-1.5925,7.4388,7.4388,0,0,1,.4537-2.1294l15.6624-35.6675a4.5091,4.5091,0,0,0,.3881-1.7673,1.2532,1.2532,0,0,0-1.36-1.4192h-9.5785c-1.0791,0-2.103,1.0752-2.8794,3.0444L626,79.3168V41.151c0-2.084-.3673-3.3088-1.4884-3.3088h-9.45c-1.0778,0-1.0616,1.2248-1.0616,3.3088v77.0271c0,2.085-.0162,2.6641,1.0616,2.6641h9.45c1.1644,0,1.4884-.54,1.4884-2.5491V82.039l17.2155,36.0227c.8627,2.0087,2.0056,2.7805,3.1711,2.7805h9.4487c.56,0,.8418-.2122.8418-1.1A4.2669,4.2669,0,0,0,656.2235,118.0038Z"/>
        </g>
    </g>
</svg>
