<svg xmlns="http://www.w3.org/2000/svg" viewBox="0 0 164 164">
    <title>Little Fork</title>
    <defs>
        <style>
            .a { fill: #e01b84; }
            .b { fill: #0d000d; }
            .c { fill: #ffffff; }
        </style>
    </defs>
    <g id="svg-logo-mark">
        <circle class="c" cx="82" cy="82" r="50"/>
        <path class="a" d="M82,11.5022A70.4979,70.4979,0,1,1,11.5021,82,70.4979,70.4979,0,0,1,82,11.5022M82,2.518A79.482,79.482,0,0,0,25.7977,138.2022,79.4819,79.4819,0,1,0,138.2022,25.7978,78.9614,78.9614,0,0,0,82,2.518Z"/>
        <path class="b" d="M82,15.7421A66.2579,66.2579,0,1,0,148.2579,82,66.2579,66.2579,0,0,0,82,15.7421Zm26.1911,58.1137c-.143,5.9195-2.6685,12.9356-11.4583,16.2771-6.8516,2.605-10.5378,5.9754-11.5378,8.503V113.257c2,1.37,4.1606,4.0368,4.1606,7.0954a8.068,8.068,0,1,1-16.1359,0c0-2.9355.9753-5.5024,3.9753-6.9162v-8.263c-1-.63-.4191-1.3139-.6868-2.0175A11.0457,11.0457,0,0,0,70.106,96.39c-9.1772-3.5257-12.0668-10.562-12.3885-16.4212a8.0751,8.0751,0,1,1,6.7413-.6845c.0906,3.4443,1.57,8.26,8.1117,10.7729,1.7744.6819,2.6246,1.5728,4.6246,2.5923V50.5639c-3-1.4139-3.9909-3.9808-3.9909-6.9163a8.0836,8.0836,0,0,1,16.1671,0c0,3.0588-2.1762,5.7256-4.1762,7.0957V88.7946a30.3,30.3,0,0,1,9.1274-5.0022,10.3044,10.3044,0,0,0,7.1065-9.8015,8.07,8.07,0,1,1,6.7622-.1351Z"/>
    </g>
</svg>
