<svg xmlns="http://www.w3.org/2000/svg" viewBox="0 0 478 280">
    <title>Little Fork</title>
    <defs>
        <style>
            .a { fill: #e01b84; }
            .b { fill: #0d000d; }
            .c { fill: #ffffff; }
        </style>
    </defs>
    <g id="svg-logo-mark">
        <circle class="c" cx="235" cy="82" r="60"/>
        <path class="a" d="M238.23,11.741a70.4979,70.4979,0,1,1-70.4978,70.4978A70.4979,70.4979,0,0,1,238.23,11.741m0-8.9841A79.482,79.482,0,0,0,182.0274,138.441,79.4819,79.4819,0,1,0,294.4319,26.0366,78.9613,78.9613,0,0,0,238.23,2.7569Z"/>
        <path class="b" d="M238.23,15.9809a66.258,66.258,0,1,0,66.2578,66.2578A66.258,66.258,0,0,0,238.23,15.9809ZM264.421,74.0947c-.1431,5.9194-2.33,12.9355-11.12,16.2771-6.8516,2.605-10.1989,5.9753-11.1989,8.5029v14.6211a8.9136,8.9136,0,0,1,3.8217,7.0955,8.2587,8.2587,0,0,1-8.2764,8.0757,7.8329,7.8329,0,0,1-7.7747-8.0757,7.1586,7.1586,0,0,1,4.2294-6.9163v-8.2629c-1-.63-.758-1.314-1.0257-2.0176a11.2933,11.2933,0,0,0-6.5717-6.7654c-9.1771-3.5256-12.1515-10.562-12.4732-16.4211a8.0484,8.0484,0,1,1,6.6619-.6846c.0906,3.4443,1.9057,8.26,8.4479,10.773a53.5175,53.5175,0,0,1,4.9608,2.5922V50.8027a7.2484,7.2484,0,0,1-4.33-6.9163,7.9156,7.9156,0,0,1,7.8751-8.0754,8.3475,8.3475,0,0,1,8.3768,8.0754,8.9986,8.9986,0,0,1-3.9221,7.0957V89.0334a28.0576,28.0576,0,0,1,8.7885-5.0022c5.599-2.1284,6.7954-6.4194,6.9371-9.8015a8.1752,8.1752,0,0,1-4.9188-7.3843,8.0379,8.0379,0,1,1,11.5117,7.2493Z"/>
    </g>
    <g id="svg-logo-text">
        <g id="svg-logo-text-highlights" class="a">
            <path d="M160.7939,274.081c-.59,0-.6914-.38-.6914-.5361v.1074c0,1.1582-.4493,1.7549-.19,2.083s.0907.3457.6513.3457h28.8652c.5606,0,1.4986.002,1.7574-.2881a2.3863,2.3863,0,0,0,.9166-1.7353v-.5525a21.345,21.345,0,0,1-2.4434.5759Z"/>
            <path d="M140.1025,200.081v2h8.2293c.6036,0,1.6007.043,1.838-.208a2.1916,2.1916,0,0,0,.9327-1.6562v-.6729a17.7374,17.7374,0,0,1-2.54.5371Z"/>
            <path d="M125.5875,274.081c-.8687,0-1.485-.5415-1.485-1.0229v.5356c0,1.1211-.0426,1.7168.2387,2.084s.4975.4033,1.0151.4033H134.87c.5606,0,.854-.0273,1.1353-.375.2777-.3445.2939-.81.2942-1.9477a4.3616,4.3616,0,0,1-1.1978.3227Z"/>
            <path d="M239.1025,273.6884c-1,.0743-1.475.3926-1.8738.3926H202.9915c-.6865,0-.889-.4055-.889-.5971v.4575c0,1.0429-.3507,1.5625-.0919,1.8515s.1894.2881.75.2881h34.2373c.56,0,1.1914.002,1.4727-.2881a2.2882,2.2882,0,0,0,.6319-1.7353Z"/>
            <path d="M283.1025,238.081v2h13.242c.5606,0,1.5406-.0386,1.7994-.3276a2.5063,2.5063,0,0,0,.9586-1.7769V237.39a19.955,19.955,0,0,1-2.5266.6909Z"/>
            <path d="M268.6168,274.081c-1.0467,0-1.5143-.5752-1.5143-.9382v.7986c0,1.0429-.0382,1.5625.2206,1.8515s.5019.2881,1.0625.2881H277.9c.56,0,1.2633.002,1.522-.2881a2.5411,2.5411,0,0,0,.68-1.8515v-.28c-1,.09-1.5292.42-1.9716.42Z"/>
            <path d="M47.2763,274.081a2.7076,2.7076,0,0,1-1.4253-.4761c-.0535-.0234.2515-.1977.2515-.2246v.272c0,.7725-.2945,1.3711-.1431,1.7949.15.4258.1491.54.3649.6358s.3327-.002.7214-.002h9.5137c.5605,0,1.4332-.0273,1.6919-.375a3.0567,3.0567,0,0,0,.8512-2.0537v-.1352c-1,.18-1.7647.5639-2.312.5639Z"/>
            <path d="M235.1025,236.2968v-.3313a5.8849,5.8849,0,0,1-2.5338.1155H217.1025v3h15.2352A2.9056,2.9056,0,0,0,235.1025,236.2968Z"/>
            <path d="M4.95,274.081c-.666,0-.8475-.4065-.8475-.5974v.1687c0,1.1582-.3717,1.7549-.1129,2.083s.1684.3457.729.3457H33.5838c.5605,0,1.421.002,1.68-.2881a2.3662,2.3662,0,0,0,.8389-1.7353V273.57c-1,.1456-1.7047.5115-2.2873.5115Z"/>
            <path d="M110.8047,199.7832c-.0331-.01.2978-.1387.2978-.1507v.5843c0,.6943-.4356,1.207-.2833,1.5341.15.3291.0683.3536.2627.4112s.2509-.0811.6835-.0811h10.3371v-2H111.9966A2.788,2.788,0,0,1,110.8047,199.7832Z"/>
            <path d="M238.3734,201.7568a2.4626,2.4626,0,0,0,.7291-1.7725v-.4233c-1,.1057-1.583.52-2.0679.52H217.1025v2h19.701C237.3641,202.081,238.1146,202.0459,238.3734,201.7568Z"/>
            <path d="M97.1025,200.081v2h8.32c.6035,0,1.5552.043,1.7925-.208a2.1765,2.1765,0,0,0,.8873-1.6562v-.6316a21.1952,21.1952,0,0,1-2.4494.4958Z"/>
            <path d="M67.895,199.7832c-.0619-.0186.2075-.1568.2075-.1824v.616c0,.6943-.39,1.207-.2379,1.5341.15.3291.0911.3536.2854.4112s.2736-.0811.7063-.0811H79.1025v-2H69.0871A2.7882,2.7882,0,0,1,67.895,199.7832Z"/>
            <path d="M302.1025,199.6482a8.5147,8.5147,0,0,0-1.7083.4328H283.1025v2h17.06a1.9842,1.9842,0,0,0,1.3912-.3242,2.524,2.524,0,0,0,.5484-1.7725Z"/>
            <path d="M92.1921,274.081H82.6779a.5225.5225,0,0,1-.5754-.5364v.0491c0,1.1211-.4971,1.7168-.2159,2.084s.0429.4033.5605.4033h9.5137c.56,0,.8085-.0273,1.09-.375.275-.3413.25-.8022.249-1.9189A4.3878,4.3878,0,0,1,92.1921,274.081Z"/>
            <path d="M411.8168,228.2815q-.3816.268-.7943.52.3209.207.6154.418c.1654.1184.3282.2578.492.3892a15.5076,15.5076,0,0,0,1.2283-1.5064,11.7311,11.7311,0,0,0,1.3338-2.5515A14.5364,14.5364,0,0,1,411.8168,228.2815Z"/>
            <path d="M432.4865,274.081c-.9374,0-1.384-.5554-1.384-.9912v.1572c0,2.085.0751,2.834,1.1532,2.834h9.4492c1.1221,0,1.5576-.5356,1.5886-2.3779a5.1123,5.1123,0,0,1-1.357.3779Z"/>
            <path d="M351.0826,269.331a19.3943,19.3943,0,0,1-7.6536,4.22,42.6628,42.6628,0,0,1-19.4715,0,19.0249,19.0249,0,0,1-7.6716-4.2942,18.14,18.14,0,0,1-3.4429-4.3137,18.3287,18.3287,0,0,0,4.73,7.4636,16.7185,16.7185,0,0,0,6.7636,3.793,40.4456,40.4456,0,0,0,18.251,0,17.064,17.064,0,0,0,6.7627-3.7354,16.5876,16.5876,0,0,0,3.9849-5.5981A16.6315,16.6315,0,0,1,351.0826,269.331Z"/>
            <path d="M473.6492,273.91c-.1294.0157-.2588.1714-.389.1714h-9.4487c-1.7106,0-3.035-1.0351-4.1364-2.9158l.9629,2.0506c.8623,2.0078,1.7778,2.8652,2.9419,2.8652h9.4492c.5606,0,.8418-.2969.8418-1.1855A2.56,2.56,0,0,0,473.6492,273.91Z"/>
            <path d="M372.6857,274.081c-.5407,0-.5832-.3647-.5832-.5v.1862c0,1.0821-.5035,1.64-.2447,1.9678s.0365.3457.5971.3457H381.97c.56,0,1.2286-.0176,1.4874-.3457a2.915,2.915,0,0,0,.6456-1.9678v-.1113c-1,.0906-1.5135.4248-1.9026.4248Z"/>
            <path d="M333.66,198.9829a6.4123,6.4123,0,0,0-5.2289,2.0666,9.8367,9.8367,0,0,0-1.5974,2.9864,8.742,8.742,0,0,1,6.5959-2.4871q4.66,0,7.0225,2.8086c.1255.1492.2431.3218.363.4883a10.9855,10.9855,0,0,0-1.8649-3.86C337.8152,199.6381,336.0848,198.9829,333.66,198.9829Z"/>
            <path d="M398.5974,237.27a8.3466,8.3466,0,0,0-2.1327-.8694,13.8287,13.8287,0,0,0-2.68-.32h-6.6821v3h6.451a17.3424,17.3424,0,0,1,3.1065.1431,9.8535,9.8535,0,0,1,2.7509.9255,5.1,5.1,0,0,1,1.2243.8941,7.0382,7.0382,0,0,0-.7123-2.3755A3.2683,3.2683,0,0,0,398.5974,237.27Z"/>
            <path d="M390.808,200.081h-3.7055v2h3.4745c4.6162,0,7.9052,1.1045,9.8691,3.0928.1293.1309.2428.2886.3635.4341a6.9327,6.9327,0,0,0-1.7431-3.39C397.5521,200.6858,394.7735,200.081,390.808,200.081Z"/>
            <path d="M409.5591,273.843q-4.09.0231-4.2542.0234a3.0608,3.0608,0,0,1-1.3368-.2956c.0034.1372.0053.228.0053.259q.0645,2.606,1.1006,2.6038.2579,0,10.29-.0586c.7488,0,1.1321-.9048,1.16-2.6958a3.32,3.32,0,0,1-.9156.13Z"/>
        </g>
        <g id="svg-logo-text-letters" class="b">
            <path d="M35.38,262.6142a2.6279,2.6279,0,0,0-1.5646-.5332H16.9883c-.6045,0,.1142-.17.1142-1.02V190.9851a3.769,3.769,0,0,0-.8983-2.3206,2.8173,2.8173,0,0,0-1.74-.5835H4.95c-.5611,0-.5856.2549-.8439.5835s-.0036,1.1624-.0036,2.3206v77.8366c0,1.1582-.2562,1.6707.0036,1.9981.2583.3284.2828.2612.8439.2612H33.8152c.56,0,1.306.0872,1.5646-.2026a2.1379,2.1379,0,0,0,.7227-1.6507v-4.6335A3.0535,3.0535,0,0,0,35.38,262.6142Z"/>
            <path d="M58.5287,189.19a1.68,1.68,0,0,0-.7231-.8733,2.9853,2.9853,0,0,0-1.0151-.2354H47.2763c-.5612,0-.7278.2647-1.0071.6118-.2818.3472-.1667,1.1726-.1667,2.2923v77.8366a7.1951,7.1951,0,0,0-.0274,1.7955c.1506.4257.206.4548.4223.551s.3907-.0872.7789-.0872h9.5142c.56,0,1.3173.0579,1.5768-.29a2.834,2.834,0,0,0,.7352-1.97V190.9851A4.737,4.737,0,0,0,58.5287,189.19Z"/>
            <path d="M107.2987,188.6645a2.5391,2.5391,0,0,0-1.6456-.5835H69.0871c-.6045,0-.6871.2549-.9454.5835s-.0392,1.1038-.0392,2.1467v4.575c0,.6948-.274,1.2073-.1234,1.5349s.15.7678.3436.8264.333.3335.7644.3335H80.3478c.4748,0,1.7547-.01,1.7547.9544v69.729c0,1.12-.3811,1.6316-.1,1.9978s.1579.3188.6758.3188h9.5142c.56,0,1.5949.0579,1.8754-.29a2.81,2.81,0,0,0,1.035-2.0271v-69.729c0-.9646-.992-.9544-.5161-.9544h11.0667a2.9816,2.9816,0,0,0,1.6783-.6233,3.4194,3.4194,0,0,0,.7711-2.0715v-4.575A3.5288,3.5288,0,0,0,107.2987,188.6645Z"/>
            <path d="M150.2535,188.6645a2.67,2.67,0,0,0-1.6908-.5835H111.9966c-.6043,0-.6417.2549-.9.5835s.0059,1.1038.0059,2.1467v4.575c0,.6948-.3192,1.2073-.1685,1.5349s.1269.7678.321.8264.31.3335.7416.3335h11.2609c.4746,0,1.845-.01,1.845.9544v69.729c0,1.12-.4261,1.6316-.1456,1.9978s.1127.3188.6306.3188h9.5141c.56,0,1.14.0579,1.4207-.29a2.923,2.923,0,0,0,.58-2.0271v-69.729c0-.9646-.0823-.9544.3935-.9544h11.0667a3.1406,3.1406,0,0,0,1.7236-.6233,3.3979,3.3979,0,0,0,.8162-2.0715v-4.575A3.5123,3.5123,0,0,0,150.2535,188.6645Z"/>
            <path d="M191.3016,262.6142a2.8851,2.8851,0,0,0-1.6425-.5332H172.8322c-.6045,0,.27-.17.27-1.02V190.9851a3.739,3.739,0,0,0-.9764-2.3206,3.0606,3.0606,0,0,0-1.8181-.5835h-9.5141c-.5612,0-.5076.2549-.7661.5835s.0747,1.1624.0747,2.3206v77.8366c0,1.1582-.3342,1.6707-.0747,1.9981s.2049.2612.7661.2612h28.8652c.56,0,1.3841.0872,1.6425-.2026a2.1473,2.1473,0,0,0,.8009-1.6507v-4.6335A3.03,3.03,0,0,0,191.3016,262.6142Z"/>
            <path d="M239.28,263.0888a1.8153,1.8153,0,0,0-.8472-.7644,4.5563,4.5563,0,0,0-1.204-.2434H215.1025V235.8681c0-.385-.4146-.7964-.2625-1.1831s-.1773-.604-.0042-.604h17.7329a2.5563,2.5563,0,0,0,2.5338-2.614v-4.459a2.8693,2.8693,0,0,0-2.5338-2.927H214.7714c-.13,0,.22-.0425.0686-.39s.2625-.5635.2625-.9119v-23.397c0-1.2741-.7193-2.3015-.2025-2.3015h22.1346c.56,0,1.1953.0508,1.4549-.2392a2.2465,2.2465,0,0,0,.613-1.6868v-4.5759a3.6379,3.6379,0,0,0-.4517-1.563,1.4358,1.4358,0,0,0-.6619-.728,3.0845,3.0845,0,0,0-.9543-.2071H202.9915c-.5611,0-.6064.2456-.8649.5542s-.0241,1.0567-.0241,2.06v78.4162c0,1.042-.2354,1.4771.0241,1.7669s.3038.2026.8649.2026h34.2372c.56,0,1.5766.0872,1.8571-.2026a2.17,2.17,0,0,0,1.0167-1.6507v-4.5759C240.1025,263.957,239.4308,263.436,239.28,263.0888Z"/>
            <path d="M302.3317,189.0161a1.7179,1.7179,0,0,0-.79-.728,4.0512,4.0512,0,0,0-1.1472-.2071H268.6168c-.5612,0-.4192.2456-.6775.5542s.1632,1.0567.1632,2.06v78.4162c0,1.042-.4227,1.4771-.1632,1.7669s.1163.2026.6775.2026h9.5141c.56,0,1.1483.0872,1.4068-.2026a2.355,2.355,0,0,0,.5648-1.7669v-32.2a3.0374,3.0374,0,0,1,.05-1.1757c.1509-.3086.1355-.6546.3085-.6546h16.1149c.56,0,1.4258.0469,1.6842-.2429a2.2567,2.2567,0,0,0,.8424-1.6909V227.934a2.1214,2.1214,0,0,0-.8424-1.65c-.2584-.27-1.1242-.2031-1.6842-.2031H280.3967c-.4325,0-.2942-.7908-.2942-1.5639v-25.54c0-1.0034-.0939-1.8958.4228-1.8958h19.8689c.5612,0,1.5167.0508,1.775-.2392a2.272,2.272,0,0,0,.9333-1.6868v-4.5759C303.1025,189.8845,302.4813,189.3635,302.3317,189.0161Z"/>
            <path d="M356.9916,211.8049a54.1192,54.1192,0,0,0-2.7508-12.1043,18.7783,18.7783,0,0,0-4.8541-7.5,17.2165,17.2165,0,0,0-6.7621-3.7934,32.7481,32.7481,0,0,0-8.9647-1.0713,35.0089,35.0089,0,0,0-7.5711.7239,18.834,18.834,0,0,0-6.0841,2.5486,14.9775,14.9775,0,0,0-4.7242,4.894,32.79,32.79,0,0,0-3.2688,7.7605,59.3278,59.3278,0,0,0-2.0063,11.1775q-.6156,6.4873-.615,15.0576a148.1508,148.1508,0,0,0,.9389,18.1565,58.82,58.82,0,0,0,2.6854,12.3062,18.4291,18.4291,0,0,0,4.79,7.6162,16.7045,16.7045,0,0,0,6.7633,3.7934,40.4791,40.4791,0,0,0,18.2509,0,17.0692,17.0692,0,0,0,6.7633-3.7358,17.957,17.957,0,0,0,4.7885-7.5576,57.8585,57.8585,0,0,0,2.654-12.3357,155.2055,155.2055,0,0,0,.906-18.2432A142.0792,142.0792,0,0,0,356.9916,211.8049ZM344.0158,250.55q-1.1013,7.2092-3.4956,9.9607t-6.9246,2.7514a8.42,8.42,0,0,1-6.8276-2.8091q-2.3639-2.8088-3.4629-10.0193a149.0335,149.0335,0,0,1-1.1-20.936,146.2379,146.2379,0,0,1,1.0358-20.0962q1.0347-6.95,3.4618-9.8161a8.61,8.61,0,0,1,6.9573-2.8677q4.6612,0,7.0228,2.8091t3.3974,9.7011a147.3785,147.3785,0,0,1,1.0358,20.27A150.3324,150.3324,0,0,1,344.0158,250.55Z"/>
            <path d="M416.5014,247.915a47,47,0,0,0-.97-8.3977,14.3461,14.3461,0,0,0-2.2658-5.415,13.9334,13.9334,0,0,0-2.9449-3.04,19.8153,19.8153,0,0,0-3.7855-2.0274.3345.3345,0,0,1-.1941-.29.4824.4824,0,0,1,.1941-.3474,16.0757,16.0757,0,0,0,3.98-1.969,13.04,13.04,0,0,0,3.0747-3.1562,14.2673,14.2673,0,0,0,2.136-5.2122,35.3859,35.3859,0,0,0,.7119-7.5576,35.749,35.749,0,0,0-1.1984-9.904,19.432,19.432,0,0,0-3.0408-6.4864,12.3045,12.3045,0,0,0-4.8868-3.7065,23.0328,23.0328,0,0,0-5.9215-1.8279,49.5244,49.5244,0,0,0-6.9574-.4966H372.6857c-.5611,0-.4535.2456-.7119.5542s.1287,1.1331.1287,2.2923v78.01c0,1.0817-.3883,1.5544-.1287,1.8818s.1508.2612.7119.2612H382.2c.56,0,1.6138.0672,1.8721-.2612a2.6311,2.6311,0,0,0,1.0305-1.8818V235.29c0-.85-1.0484-1.2088-.5725-1.2088h9.2546a16.8266,16.8266,0,0,1,3.1062.2276,10.0369,10.0369,0,0,1,2.751.9682,5.4774,5.4774,0,0,1,2.2657,2.3081,9.8787,9.8787,0,0,1,1.0674,3.9639q.4524,1.91.8417,14.4761.3876,12.5679.3882,12.9716.0632,2.6064,1.1,2.6055.2577,0,10.2905-.0581,1.1643,0,1.1644-2.8957Q416.76,252.4328,416.5014,247.915Zm-23.6873-22.834h-8.3485c-.4326,0,.6369-.6213.6369-1.6645V198.6294c0-.772-1.0484-1.5484-.5725-1.5484h6.278c4.6156,0,7.9054,1.19,9.87,3.1778s2.9449,5.62,2.9449,10.6013C403.6225,220.2422,400.0193,225.081,392.8141,225.081Z"/>
            <path d="M473.6484,268.2426l-16.6972-37.5857a5.4961,5.4961,0,0,1-.2595-1.5925,7.4421,7.4421,0,0,1,.4536-2.1294l15.6625-35.6675a4.5083,4.5083,0,0,0,.3881-1.7673,1.2532,1.2532,0,0,0-1.36-1.4192h-9.5784c-1.0792,0-1.7643,1.0752-2.5406,3.0445l-15.6147,38.43V191.39c0-2.084-1.0449-3.3089-2.166-3.3089h-9.45c-1.0779,0-.384,1.2249-.384,3.3089V268.417c0,2.0849-.6939,2.664.384,2.664h9.45c1.1644,0,2.166-.54,2.166-2.5491V232.2778l16.8766,36.0227c.8628,2.0088,1.6668,2.7805,2.8324,2.7805H473.26c.56,0,.8418-.2121.8418-1.1A4.2669,4.2669,0,0,0,473.6484,268.2426Z"/>
        </g>
    </g>
</svg>
